<?xml version="1.0" ?><svg height="467.39001" id="svg42" version="1.1" viewBox="0 0 467.384 467.39001" width="467.384" xml:space="preserve" xmlns="http://www.w3.org/2000/svg" xmlns:cc="http://creativecommons.org/ns#" xmlns:dc="http://purl.org/dc/elements/1.1/" xmlns:inkscape="http://www.inkscape.org/namespaces/inkscape" xmlns:rdf="http://www.w3.org/1999/02/22-rdf-syntax-ns#" xmlns:sodipodi="http://sodipodi.sourceforge.net/DTD/sodipodi-0.dtd" xmlns:svg="http://www.w3.org/2000/svg"><defs id="defs46"/><g id="Website_lock_icon" transform="translate(-22.306,-22.305)"><g id="g38"><path d="m 255.999,22.305 c 129.118,0 233.69,104.577 233.69,233.69 0,129.123 -104.572,233.7 -233.69,233.7 -129.125,0 -233.693,-104.577 -233.693,-233.7 0,-129.113 104.568,-233.69 233.693,-233.69 z" id="path4" style="clip-rule:evenodd;fill:#ffd05b;fill-rule:evenodd"/><path d="m 483.978,203.544 c 3.698,16.815 5.712,34.299 5.712,52.451 0,125.764 -98.86,227.974 -223.269,233.366 0,-2.357 -151.653,-139.888 -167.447,-149.966 0,-67.597 3.354,-130.478 3.354,-197.721 l 310.699,-3.359 c 4.709,6.394 69.605,65.229 70.951,65.229 z" id="path6" style="clip-rule:evenodd;fill:#e6bb52;fill-rule:evenodd"/><rect height="21.511" id="rect8" style="clip-rule:evenodd;fill:#21313e;fill-rule:evenodd" width="54.136002" x="229.101" y="339.729"/><rect height="202.42599" id="rect10" style="clip-rule:evenodd;fill:#324a5e;fill-rule:evenodd" width="314.05399" x="98.973999" y="138.315"/><rect height="178.883" id="rect12" style="clip-rule:evenodd;fill:#ffffff;fill-rule:evenodd" width="290.517" x="110.743" y="150.082"/><path d="M 197.827,360.238 H 314.5 c 3.708,0 6.395,3.025 6.395,6.719 v 0 c 0,3.703 -2.687,6.729 -6.395,6.729 H 197.827 c -3.701,0 -6.719,-3.025 -6.719,-6.729 v 0 c 0,-3.693 3.018,-6.719 6.719,-6.719 z" id="path14" style="clip-rule:evenodd;fill:#324a5e;fill-rule:evenodd"/><rect height="118.692" id="rect16" style="clip-rule:evenodd;fill:#ffffff;fill-rule:evenodd" width="158.705" x="223.048" y="189.086"/><rect height="7.7199998" id="rect18" style="clip-rule:evenodd;fill:#efefef;fill-rule:evenodd" width="190.983" x="175.3" y="202.20799"/><rect height="7.7399998" id="rect20" style="clip-rule:evenodd;fill:#efefef;fill-rule:evenodd" width="190.983" x="175.3" y="235.82001"/><rect height="20.843" id="rect22" style="clip-rule:evenodd;fill:#90dfaa;fill-rule:evenodd" width="20.854" x="146.04201" y="229.10201"/><rect height="7.7399998" id="rect24" style="clip-rule:evenodd;fill:#efefef;fill-rule:evenodd" width="190.983" x="175.3" y="269.45099"/><rect height="20.834" id="rect26" style="clip-rule:evenodd;fill:#ffd05b;fill-rule:evenodd" width="20.854" x="146.04201" y="262.73199"/><rect height="20.518999" id="rect28" style="clip-rule:evenodd;fill:#fd8469;fill-rule:evenodd" width="20.854" x="146.04201" y="195.80499"/><path d="m 290.298,264.746 h -68.601 v -60.868 c 0,-18.829 15.475,-34.29 34.302,-34.29 19.168,0 34.299,15.46 34.299,34.29 z m -52.455,-16.157 h 36.651 v -44.711 c 0,-10.078 -8.412,-18.495 -18.495,-18.495 -10.085,0 -18.156,8.417 -18.156,18.495 z" id="path30" style="clip-rule:evenodd;fill:#ffd15d;fill-rule:evenodd"/><path d="m 203.205,230.113 h 10.09 85.746 9.749 v 10.087 59.169 10.088 H 203.205 v -9.744 -0.344 -59.169 z m 63.216,33.288 c 0,-5.727 -4.705,-10.432 -10.422,-10.432 -5.719,0 -10.429,4.705 -10.429,10.432 0,3.692 2.019,7.052 5.046,8.741 v 15.127 h 11.099 v -15.127 c 2.692,-1.689 4.706,-5.048 4.706,-8.741 z" id="path32" style="clip-rule:evenodd;fill:#fc6f58;fill-rule:evenodd"/><path d="m 264.407,273.479 v 16.816 h -16.818 v -16.816 c -3.023,-2.348 -4.703,-6.041 -4.703,-10.077 0,-7.406 5.714,-13.113 13.113,-13.113 7.396,0 13.446,5.707 13.446,13.113 0,4.036 -2.013,7.729 -5.038,10.077 z" id="path34" style="clip-rule:evenodd;fill:#b85140;fill-rule:evenodd"/><path d="m 266.421,263.401 c 0,-5.727 -4.705,-10.432 -10.422,-10.432 -5.719,0 -10.429,4.705 -10.429,10.432 0,3.692 2.019,7.052 5.046,8.741 v 15.127 h 11.099 v -15.127 c 2.692,-1.689 4.706,-5.048 4.706,-8.741 z" id="path36" style="clip-rule:evenodd;fill:#324a5e;fill-rule:evenodd"/></g></g><g id="Layer_1" transform="translate(-22.306,-22.305)"/></svg>